<?xml version="1.0" encoding="UTF-8"?>
<svg xmlns="http://www.w3.org/2000/svg" version="1.1" viewBox="0 0 210 41">
  <defs>
    <style>
      .cls-1, .cls-2 {
        fill: #388ae4;
      }

      .cls-3 {
        fill: #1fd053;
      }

      .cls-3, .cls-2 {
        fill-rule: evenodd;
      }
    </style>
  </defs>
  <!-- Generator: Adobe Illustrator 28.7.1, SVG Export Plug-In . SVG Version: 1.2.0 Build 142)  -->
  <g>
    <g id="Layer_1">
      <g>
        <g>
          <path class="cls-1" d="M123.8,41h-26.9V0h27c4.9,0,9.1,1.3,11.9,3.8,3,2.6,4.5,6.4,4.5,11.2v11c0,4.8-1.5,8.6-4.5,11.2-2.8,2.5-7,3.8-12,3.8ZM106.7,31.9c0,.2.2.4.4.4h16.7c4.3,0,6.7-2.3,6.7-6.3v-11c0-4-2.4-6.3-6.6-6.3h-16.8c-.2,0-.4.2-.4.4v22.8Z"/>
          <path class="cls-1" d="M157.7,41h-10.8V0h10.8v41Z"/>
          <path class="cls-1" d="M42.8,41h-11.4l-7.5-14.6h-14.1v14.7H0V0h27.7c9.3,0,14.2,4.8,14.2,13.8s-2.3,10.4-6.7,12.5l7.6,14.7ZM9.8,18.5c0,.2.2.4.4.4h17.2c3.1,0,4.4-1.5,4.4-5.2s-1.3-5.1-4.4-5.1H10.2c-.2,0-.4.2-.4.4v9.4Z"/>
          <path class="cls-1" d="M61,32.5l-2.9,8.5h-11.2S62.3,0,62.3,0h13.7s15.8,41,15.8,41h-11.2s-3.4-8.5-3.4-8.5h-16.1ZM63.9,24.4h10.9l-4.5-12c0-.2-.2-.3-.4-.3h-1.5c-.2,0-.3.1-.4.3l-4.2,12Z"/>
        </g>
        <path class="cls-2" d="M194,20.5l16,20.5h-14.1l-16-20.5h14.1Z"/>
        <path class="cls-2" d="M179.9,20.5L163.9,0h14.1l8.9,11.4-7.1,9.1Z"/>
        <path class="cls-3" d="M179.9,20.5l-16,20.5h14.2l8.9-11.4-7.1-9.1Z"/>
        <polyline class="cls-3" points="179.9 20.5 194 20.5 210 0 195.9 0 179.9 20.5"/>
      </g>
    </g>
  </g>
</svg>